<svg
    xmlns="http://www.w3.org/2000/svg"
    viewBox="0 0 64 40"
    width="200"
    height="120"
>
    <!-- Corps de la manette -->
    <defs>
        <linearGradient id="gradient1" x1="0%" y1="0%" x2="100%" y2="100%">
            <stop offset="0%" style="stop-color: #555; stop-opacity: 1" />
            <stop offset="100%" style="stop-color: #333; stop-opacity: 1" />
        </linearGradient>
    </defs>
    <path
        d="M32 2C18 2 2 8 2 20s5 18 10 18 5-4 8-6 5-2 10-2 7 0 10 2 4 6 8 6 10-6 10-18-16-18-30-18z"
        fill="url(#gradient1)"
        stroke="white" 
        stroke-width="2" 
        filter="url(#f1)"
    />
    
    <!-- Croix directionnelle -->
    <rect x="14" y="16" width="4" height="8" fill="#fff" rx="2"/>
    <rect x="12" y="18" width="8" height="4" fill="#fff" rx="2"/>

    <!-- Boutons A et B -->
    <circle cx="48" cy="14" r="3" fill="red" stroke="white" stroke-width="2" />
    <circle cx="54" cy="18" r="3" fill="blue" stroke="white" stroke-width="2" />
    
    <!-- Sticks -->
    <circle cx="26" cy="24" r="3" fill="black" stroke="white" stroke-width="2" />
    <circle cx="38" cy="24" r="3" fill="black" stroke="white" stroke-width="2" />
</svg>
